<?xml version="1.0" encoding="UTF-8" standalone="no"?>
<!-- Created with Inkscape (http://www.inkscape.org/) -->

<svg
   width="207.75192mm"
   height="285.62003mm"
   viewBox="0 0 207.75192 285.62003"
   version="1.1"
   id="svg5"
   xml:space="preserve"
   inkscape:version="1.2.2 (732a01da63, 2022-12-09, custom)"
   sodipodi:docname="ig-logo.svg"
   xmlns:inkscape="http://www.inkscape.org/namespaces/inkscape"
   xmlns:sodipodi="http://sodipodi.sourceforge.net/DTD/sodipodi-0.dtd"
   xmlns="http://www.w3.org/2000/svg"
   xmlns:svg="http://www.w3.org/2000/svg"><sodipodi:namedview
     id="namedview7"
     pagecolor="#ffffff"
     bordercolor="#000000"
     borderopacity="0.25"
     inkscape:showpageshadow="2"
     inkscape:pageopacity="0.0"
     inkscape:pagecheckerboard="0"
     inkscape:deskcolor="#d1d1d1"
     inkscape:document-units="mm"
     showgrid="false"
     showguides="true"
     inkscape:zoom="0.25"
     inkscape:cx="888"
     inkscape:cy="206"
     inkscape:window-width="1846"
     inkscape:window-height="1016"
     inkscape:window-x="0"
     inkscape:window-y="0"
     inkscape:window-maximized="1"
     inkscape:current-layer="layer1" /><defs
     id="defs2"><inkscape:path-effect
       effect="skeletal"
       id="path-effect1733"
       is_visible="true"
       lpeversion="1"
       pattern="m 191.65187,87.159935 a 44.589222,6.2294683 0 0 1 -44.58922,6.229468 44.589222,6.2294683 0 0 1 -44.58922,-6.229468 44.589222,6.2294683 0 0 1 44.58922,-6.229468 44.589222,6.2294683 0 0 1 44.58922,6.229468 z"
       copytype="single_stretched"
       prop_scale="1"
       scale_y_rel="false"
       spacing="0"
       normal_offset="0"
       tang_offset="0"
       prop_units="false"
       vertical_pattern="false"
       hide_knot="false"
       fuse_tolerance="0" /><inkscape:path-effect
       effect="skeletal"
       id="path-effect47622"
       is_visible="true"
       lpeversion="1"
       pattern="m 138.41997,178.90588 c -1.8846,0.43486 -3.80008,0.92154 -5.75158,1.477 -4.8953,1.83515 -8.67796,3.5521 -11.34815,5.15045 -3.3377,2.01274 -5.00693,3.90669 -5.00693,5.68263 0,2.42693 2.7819,4.46941 8.34471,6.12696 5.56286,1.65755 12.62779,2.48664 21.19458,2.48664 12.0876,0.36846 22.00044,-2.39812 32.58353,-4.52248 0.006,-0.0137 0.0146,-0.0273 0.0259,-0.0425 -4.55136,-0.3375 -18.77327,-0.48971 -25.43307,-0.4969 -8.67804,0 -15.24259,-0.71014 -19.69285,-2.1309 -3.56023,-1.12476 -5.34025,-2.51586 -5.34025,-4.17321 0,-1.42075 1.11263,-2.96019 3.33778,-4.61754 0.77882,-0.59198 4.4765,-3.1288 6.92413,-4.66796 0.0149,0.002 0.0296,0.003 0.0444,0.006 0.004,-0.0149 0.007,-0.0298 0.0113,-0.0447 0.026,-0.0867 0.0634,-0.16291 0.10645,-0.23332 z"
       copytype="single_stretched"
       prop_scale="1"
       scale_y_rel="false"
       spacing="0"
       normal_offset="0"
       tang_offset="0"
       prop_units="false"
       vertical_pattern="false"
       hide_knot="false"
       fuse_tolerance="0" /><inkscape:path-effect
       effect="skeletal"
       id="path-effect47601"
       is_visible="true"
       lpeversion="1"
       pattern="m 138.41997,178.90588 c -1.8846,0.43486 -3.80008,0.92154 -5.75158,1.477 -4.8953,1.83515 -8.67796,3.5521 -11.34815,5.15045 -3.3377,2.01274 -5.00693,3.90669 -5.00693,5.68263 0,2.42693 2.7819,4.46941 8.34471,6.12696 5.56286,1.65755 12.62779,2.48664 21.19458,2.48664 12.0876,0.36846 22.00044,-2.39812 32.58353,-4.52248 0.006,-0.0137 0.0146,-0.0273 0.0259,-0.0425 -4.55136,-0.3375 -18.77327,-0.48971 -25.43307,-0.4969 -8.67804,0 -15.24259,-0.71014 -19.69285,-2.1309 -3.56023,-1.12476 -5.34025,-2.51586 -5.34025,-4.17321 0,-1.42075 1.11263,-2.96019 3.33778,-4.61754 0.77882,-0.59198 4.4765,-3.1288 6.92413,-4.66796 0.0149,0.002 0.0296,0.003 0.0444,0.006 0.004,-0.0149 0.007,-0.0298 0.0113,-0.0447 0.026,-0.0867 0.0634,-0.16291 0.10645,-0.23332 z"
       copytype="single_stretched"
       prop_scale="1"
       scale_y_rel="false"
       spacing="0"
       normal_offset="0"
       tang_offset="0"
       prop_units="false"
       vertical_pattern="false"
       hide_knot="false"
       fuse_tolerance="0" /><inkscape:path-effect
       effect="skeletal"
       id="path-effect47580"
       is_visible="true"
       lpeversion="1"
       pattern="m 138.41997,178.90588 c -1.8846,0.43486 -3.80008,0.92154 -5.75158,1.477 -4.8953,1.83515 -8.67796,3.5521 -11.34815,5.15045 -3.3377,2.01274 -5.00693,3.90669 -5.00693,5.68263 0,2.42693 2.7819,4.46941 8.34471,6.12696 5.56286,1.65755 12.62779,2.48664 21.19458,2.48664 12.0876,0.36846 22.00044,-2.39812 32.58353,-4.52248 0.006,-0.0137 0.0146,-0.0273 0.0259,-0.0425 -4.55136,-0.3375 -18.77327,-0.48971 -25.43307,-0.4969 -8.67804,0 -15.24259,-0.71014 -19.69285,-2.1309 -3.56023,-1.12476 -5.34025,-2.51586 -5.34025,-4.17321 0,-1.42075 1.11263,-2.96019 3.33778,-4.61754 0.77882,-0.59198 4.4765,-3.1288 6.92413,-4.66796 0.0149,0.002 0.0296,0.003 0.0444,0.006 0.004,-0.0149 0.007,-0.0298 0.0113,-0.0447 0.026,-0.0867 0.0634,-0.16291 0.10645,-0.23332 z"
       copytype="single_stretched"
       prop_scale="1"
       scale_y_rel="false"
       spacing="0"
       normal_offset="0"
       tang_offset="0"
       prop_units="false"
       vertical_pattern="false"
       hide_knot="false"
       fuse_tolerance="0" /><inkscape:path-effect
       effect="skeletal"
       id="path-effect47559"
       is_visible="true"
       lpeversion="1"
       pattern="m 138.41997,178.90588 c -1.8846,0.43486 -3.80008,0.92154 -5.75158,1.477 -4.8953,1.83515 -8.67796,3.5521 -11.34815,5.15045 -3.3377,2.01274 -5.00693,3.90669 -5.00693,5.68263 0,2.42693 2.7819,4.46941 8.34471,6.12696 5.56286,1.65755 12.62779,2.48664 21.19458,2.48664 12.0876,0.36846 22.00044,-2.39812 32.58353,-4.52248 0.006,-0.0137 0.0146,-0.0273 0.0259,-0.0425 -4.55136,-0.3375 -18.77327,-0.48971 -25.43307,-0.4969 -8.67804,0 -15.24259,-0.71014 -19.69285,-2.1309 -3.56023,-1.12476 -5.34025,-2.51586 -5.34025,-4.17321 0,-1.42075 1.11263,-2.96019 3.33778,-4.61754 0.77882,-0.59198 4.4765,-3.1288 6.92413,-4.66796 0.0149,0.002 0.0296,0.003 0.0444,0.006 0.004,-0.0149 0.007,-0.0298 0.0113,-0.0447 0.026,-0.0867 0.0634,-0.16291 0.10645,-0.23332 z"
       copytype="single_stretched"
       prop_scale="1"
       scale_y_rel="false"
       spacing="0"
       normal_offset="0"
       tang_offset="0"
       prop_units="false"
       vertical_pattern="false"
       hide_knot="false"
       fuse_tolerance="0" /><inkscape:path-effect
       effect="skeletal"
       id="path-effect47522"
       is_visible="true"
       lpeversion="1"
       pattern="m 138.41997,178.90588 c -1.8846,0.31205 -3.80008,0.66128 -5.75158,1.05988 -4.8953,1.31687 -8.67796,2.54894 -11.34815,3.6959 -3.3377,1.44431 -5.00693,2.80339 -5.00693,4.07779 0,1.74153 2.7819,3.20719 8.34471,4.39663 5.56286,1.18944 12.62779,1.78438 21.19458,1.78438 12.0876,0.26441 22.00044,-1.72086 32.58353,-3.24528 0.006,-0.01 0.0146,-0.0196 0.0259,-0.0305 -4.55136,-0.24218 -18.77327,-0.35141 -25.43307,-0.35657 -8.67804,0 -15.24259,-0.50959 -19.69285,-1.52911 -3.56023,-0.80711 -5.34025,-1.80535 -5.34025,-2.99464 0,-1.01952 1.11263,-2.1242 3.33778,-3.31349 0.77882,-0.4248 4.4765,-2.2452 6.92413,-3.34967 0.0149,0.001 0.0296,0.002 0.0444,0.004 0.004,-0.0107 0.007,-0.0214 0.0113,-0.0321 0.026,-0.0622 0.0634,-0.1169 0.10645,-0.16743 z"
       copytype="single_stretched"
       prop_scale="1"
       scale_y_rel="false"
       spacing="0"
       normal_offset="0"
       tang_offset="0"
       prop_units="false"
       vertical_pattern="false"
       hide_knot="false"
       fuse_tolerance="0" /><inkscape:path-effect
       effect="skeletal"
       id="path-effect47501"
       is_visible="true"
       lpeversion="1"
       pattern="m 138.41997,178.90588 c -1.8846,0.31205 -3.80008,0.66128 -5.75158,1.05988 -4.8953,1.31687 -8.67796,2.54894 -11.34815,3.6959 -3.3377,1.44431 -5.00693,2.80339 -5.00693,4.07779 0,1.74153 2.7819,3.20719 8.34471,4.39663 5.56286,1.18944 12.62779,1.78438 21.19458,1.78438 12.0876,0.26441 22.00044,-1.72086 32.58353,-3.24528 0.006,-0.01 0.0146,-0.0196 0.0259,-0.0305 -4.55136,-0.24218 -18.77327,-0.35141 -25.43307,-0.35657 -8.67804,0 -15.24259,-0.50959 -19.69285,-1.52911 -3.56023,-0.80711 -5.34025,-1.80535 -5.34025,-2.99464 0,-1.01952 1.11263,-2.1242 3.33778,-3.31349 0.77882,-0.4248 4.4765,-2.2452 6.92413,-3.34967 0.0149,0.001 0.0296,0.002 0.0444,0.004 0.004,-0.0107 0.007,-0.0214 0.0113,-0.0321 0.026,-0.0622 0.0634,-0.1169 0.10645,-0.16743 z"
       copytype="single_stretched"
       prop_scale="1"
       scale_y_rel="false"
       spacing="0"
       normal_offset="0"
       tang_offset="0"
       prop_units="false"
       vertical_pattern="false"
       hide_knot="false"
       fuse_tolerance="0" /><inkscape:path-effect
       effect="skeletal"
       id="path-effect47480"
       is_visible="true"
       lpeversion="1"
       pattern="m 138.41997,178.90588 c -1.8846,0.31205 -3.80008,0.66128 -5.75158,1.05988 -4.8953,1.31687 -8.67796,2.54894 -11.34815,3.6959 -3.3377,1.44431 -5.00693,2.80339 -5.00693,4.07779 0,1.74153 2.7819,3.20719 8.34471,4.39663 5.56286,1.18944 12.62779,1.78438 21.19458,1.78438 12.0876,0.26441 22.00044,-1.72086 32.58353,-3.24528 0.006,-0.01 0.0146,-0.0196 0.0259,-0.0305 -4.55136,-0.24218 -18.77327,-0.35141 -25.43307,-0.35657 -8.67804,0 -15.24259,-0.50959 -19.69285,-1.52911 -3.56023,-0.80711 -5.34025,-1.80535 -5.34025,-2.99464 0,-1.01952 1.11263,-2.1242 3.33778,-3.31349 0.77882,-0.4248 4.4765,-2.2452 6.92413,-3.34967 0.0149,0.001 0.0296,0.002 0.0444,0.004 0.004,-0.0107 0.007,-0.0214 0.0113,-0.0321 0.026,-0.0622 0.0634,-0.1169 0.10645,-0.16743 z"
       copytype="single_stretched"
       prop_scale="1"
       scale_y_rel="false"
       spacing="0"
       normal_offset="0"
       tang_offset="0"
       prop_units="false"
       vertical_pattern="false"
       hide_knot="false"
       fuse_tolerance="0" /><inkscape:path-effect
       effect="skeletal"
       id="path-effect35791"
       is_visible="true"
       lpeversion="1"
       pattern="m 87.723175,126.80262 a 43.880285,43.880285 0 0 0 -33.757063,15.8805 l -7.831065,0.91264 h 7.882373 40.316332 l -36.284798,4.22859 a 43.880285,43.880285 0 0 0 29.674221,11.59217 43.880285,43.880285 0 0 0 34.126875,-16.31203 43.880285,43.880285 0 0 0 -34.126875,-16.30187 z"
       copytype="single_stretched"
       prop_scale="1"
       scale_y_rel="false"
       spacing="0"
       normal_offset="0"
       tang_offset="0"
       prop_units="false"
       vertical_pattern="false"
       hide_knot="false"
       fuse_tolerance="0" /><inkscape:path-effect
       effect="powerstroke"
       id="path-effect700"
       is_visible="true"
       lpeversion="1"
       offset_points="1.0177182,3.9976658"
       not_jump="true"
       sort_points="true"
       interpolator_type="CentripetalCatmullRom"
       interpolator_beta="0.75"
       start_linecap_type="round"
       linejoin_type="spiro"
       miter_limit="4"
       scale_width="1"
       end_linecap_type="round" /><inkscape:path-effect
       effect="simplify"
       id="path-effect698"
       is_visible="true"
       lpeversion="1"
       steps="1"
       threshold="0.0047745358"
       smooth_angles="0"
       helper_size="0"
       simplify_individual_paths="false"
       simplify_just_coalesce="false"
       step="1" /><inkscape:path-effect
       effect="powerstroke"
       id="path-effect693"
       is_visible="true"
       lpeversion="1"
       offset_points="0.51384272,3.9976658"
       not_jump="true"
       sort_points="true"
       interpolator_type="CentripetalCatmullRom"
       interpolator_beta="0.75"
       start_linecap_type="round"
       linejoin_type="spiro"
       miter_limit="4"
       scale_width="1"
       end_linecap_type="round" /><inkscape:path-effect
       effect="simplify"
       id="path-effect691"
       is_visible="true"
       lpeversion="1"
       steps="1"
       threshold="0.0047745358"
       smooth_angles="0"
       helper_size="0"
       simplify_individual_paths="false"
       simplify_just_coalesce="false"
       step="1" /><inkscape:path-effect
       effect="powerstroke"
       id="path-effect686"
       is_visible="true"
       lpeversion="1"
       offset_points="0.87254226,3.9976658"
       not_jump="true"
       sort_points="true"
       interpolator_type="CentripetalCatmullRom"
       interpolator_beta="0.75"
       start_linecap_type="round"
       linejoin_type="spiro"
       miter_limit="4"
       scale_width="1"
       end_linecap_type="round" /><inkscape:path-effect
       effect="simplify"
       id="path-effect684"
       is_visible="true"
       lpeversion="1"
       steps="1"
       threshold="0.0047745358"
       smooth_angles="0"
       helper_size="0"
       simplify_individual_paths="false"
       simplify_just_coalesce="false"
       step="1" /><inkscape:path-effect
       effect="powerstroke"
       id="path-effect679"
       is_visible="true"
       lpeversion="1"
       offset_points="0.62563364,3.9976658"
       not_jump="true"
       sort_points="true"
       interpolator_type="CentripetalCatmullRom"
       interpolator_beta="0.75"
       start_linecap_type="round"
       linejoin_type="spiro"
       miter_limit="4"
       scale_width="1"
       end_linecap_type="round" /><inkscape:path-effect
       effect="simplify"
       id="path-effect677"
       is_visible="true"
       lpeversion="1"
       steps="1"
       threshold="0.0047745358"
       smooth_angles="0"
       helper_size="0"
       simplify_individual_paths="false"
       simplify_just_coalesce="false"
       step="1" /><inkscape:path-effect
       effect="powerstroke"
       id="path-effect672"
       is_visible="true"
       lpeversion="1"
       offset_points="0.17599293,3.9976658"
       not_jump="true"
       sort_points="true"
       interpolator_type="CentripetalCatmullRom"
       interpolator_beta="0.75"
       start_linecap_type="round"
       linejoin_type="spiro"
       miter_limit="4"
       scale_width="1"
       end_linecap_type="round" /><inkscape:path-effect
       effect="simplify"
       id="path-effect670"
       is_visible="true"
       lpeversion="1"
       steps="1"
       threshold="0.0047745358"
       smooth_angles="0"
       helper_size="0"
       simplify_individual_paths="false"
       simplify_just_coalesce="false"
       step="1" /><inkscape:path-effect
       effect="powerstroke"
       id="path-effect665"
       is_visible="true"
       lpeversion="1"
       offset_points="1.6063079,3.9976658"
       not_jump="true"
       sort_points="true"
       interpolator_type="CentripetalCatmullRom"
       interpolator_beta="0.75"
       start_linecap_type="round"
       linejoin_type="spiro"
       miter_limit="4"
       scale_width="1"
       end_linecap_type="round" /><inkscape:path-effect
       effect="simplify"
       id="path-effect663"
       is_visible="true"
       lpeversion="1"
       steps="1"
       threshold="0.0047745358"
       smooth_angles="0"
       helper_size="0"
       simplify_individual_paths="false"
       simplify_just_coalesce="false"
       step="1" /><inkscape:path-effect
       effect="powerstroke"
       id="path-effect658"
       is_visible="true"
       lpeversion="1"
       offset_points="1.111701,3.9976658"
       not_jump="true"
       sort_points="true"
       interpolator_type="CentripetalCatmullRom"
       interpolator_beta="0.75"
       start_linecap_type="round"
       linejoin_type="spiro"
       miter_limit="4"
       scale_width="1"
       end_linecap_type="round" /><inkscape:path-effect
       effect="simplify"
       id="path-effect656"
       is_visible="true"
       lpeversion="1"
       steps="1"
       threshold="0.0047745358"
       smooth_angles="0"
       helper_size="0"
       simplify_individual_paths="false"
       simplify_just_coalesce="false"
       step="1" /><inkscape:path-effect
       effect="skeletal"
       id="path-effect35791-1"
       is_visible="true"
       lpeversion="1"
       pattern="m 87.723175,126.80262 a 43.880285,43.880285 0 0 0 -33.757063,15.8805 l -7.831065,0.91264 h 7.882373 40.316332 l -36.284798,4.22859 a 43.880285,43.880285 0 0 0 29.674221,11.59217 43.880285,43.880285 0 0 0 34.126875,-16.31203 43.880285,43.880285 0 0 0 -34.126875,-16.30187 z"
       copytype="single_stretched"
       prop_scale="1"
       scale_y_rel="false"
       spacing="0"
       normal_offset="0"
       tang_offset="0"
       prop_units="false"
       vertical_pattern="false"
       hide_knot="false"
       fuse_tolerance="0" /><inkscape:path-effect
       effect="skeletal"
       id="path-effect47622-8"
       is_visible="true"
       lpeversion="1"
       pattern="m 138.41997,178.90588 c -1.8846,0.43486 -3.80008,0.92154 -5.75158,1.477 -4.8953,1.83515 -8.67796,3.5521 -11.34815,5.15045 -3.3377,2.01274 -5.00693,3.90669 -5.00693,5.68263 0,2.42693 2.7819,4.46941 8.34471,6.12696 5.56286,1.65755 12.62779,2.48664 21.19458,2.48664 12.0876,0.36846 22.00044,-2.39812 32.58353,-4.52248 0.006,-0.0137 0.0146,-0.0273 0.0259,-0.0425 -4.55136,-0.3375 -18.77327,-0.48971 -25.43307,-0.4969 -8.67804,0 -15.24259,-0.71014 -19.69285,-2.1309 -3.56023,-1.12476 -5.34025,-2.51586 -5.34025,-4.17321 0,-1.42075 1.11263,-2.96019 3.33778,-4.61754 0.77882,-0.59198 4.4765,-3.1288 6.92413,-4.66796 0.0149,0.002 0.0296,0.003 0.0444,0.006 0.004,-0.0149 0.007,-0.0298 0.0113,-0.0447 0.026,-0.0867 0.0634,-0.16291 0.10645,-0.23332 z"
       copytype="single_stretched"
       prop_scale="1"
       scale_y_rel="false"
       spacing="0"
       normal_offset="0"
       tang_offset="0"
       prop_units="false"
       vertical_pattern="false"
       hide_knot="false"
       fuse_tolerance="0" /></defs><g
     inkscape:label="Layer 1"
     inkscape:groupmode="layer"
     id="layer1"
     transform="translate(-0.45212993,-0.54020139)"><g
       aria-label="g"
       transform="matrix(1.6183651,0,0,0.61790753,0.31854009,-32.303726)"
       id="text171-3-7"
       style="font-size:105.597px;-inkscape-font-specification:sans-serif;opacity:0.705094;fill:#5cc078;fill-opacity:1;stroke-width:1.09996" /><g
       aria-label="g"
       transform="matrix(-1.1498836,0.18429598,0.070366,0.43903673,120.89365,-44.92284)"
       id="text171-3-7-5-7-4"
       style="font-size:105.597px;-inkscape-font-specification:sans-serif;fill:#7d58ab;fill-opacity:0.573001;stroke-width:1.09996" /><g
       transform="matrix(0.0110873,0,0,-0.0110873,123.3339,28.725117)"
       fill="#000000"
       stroke="none"
       id="g46942"
       style="fill:#24c161;fill-opacity:1" /><g
       aria-label="g"
       transform="matrix(1.6183651,0,0,0.61790753,94.501515,-59.368932)"
       id="text171-3-7-8"
       style="font-size:105.597px;-inkscape-font-specification:sans-serif;fill:#008033;fill-opacity:1;stroke-width:1.09996" /><g
       aria-label="g"
       transform="matrix(-1.1498836,0.18429598,0.070366,0.43903673,122.46594,38.437913)"
       id="text171-3-7-5-7-4-9"
       style="font-size:105.597px;-inkscape-font-specification:sans-serif;fill:#5300ba;fill-opacity:0.573001;stroke-width:1.09996" /><g
       aria-label="g"
       transform="matrix(1.6183651,0,0,0.61790753,82.975066,31.926927)"
       id="text171-3-7-0-6"
       style="font-size:105.597px;-inkscape-font-specification:sans-serif;opacity:1;fill:#008033;fill-opacity:1;stroke-width:1.09996" /><text
       xml:space="preserve"
       style="font-size:374.283px;fill:#000000;stroke-width:3.89876"
       x="26.097755"
       y="255.38411"
       id="text113-9-2-1-6-9-9"
       transform="scale(0.89245148,1.1205091)"><tspan
         sodipodi:role="line"
         id="tspan111-4-9-5-7-1-3"
         style="font-style:normal;font-variant:normal;font-weight:normal;font-stretch:normal;font-size:374.283px;font-family:'URW Bookman';-inkscape-font-specification:'URW Bookman';stroke-width:3.89876"
         x="26.097755"
         y="255.38411">I</tspan></text><g
       aria-label="g"
       id="text171-3-2-4-5-2-6"
       style="font-size:58.2518px;-inkscape-font-specification:sans-serif;fill:#218d21;fill-opacity:1;stroke-width:0.606788"
       transform="matrix(3.506262,0,0,3.506262,-85.287687,-298.54218)"><path
         id="path44512-7-7-3-7-0"
         style="font-family:aakar;-inkscape-font-specification:aakar;fill:#18801a;fill-opacity:1"
         d="m 77.884363,85.302183 c -0.09665,0.0284 -0.361636,0.265985 -0.646472,0.573608 -0.65105,0.729177 -1.745022,1.315182 -2.812749,1.510502 -0.364597,0.0781 -1.536339,0.195239 -2.591056,0.273369 -2.838611,0.208337 -3.750259,0.429915 -4.791956,1.159102 -1.497424,1.041697 -2.604324,2.994775 -3.021004,5.286499 l -0.09095,0.520898 0.533817,-0.807185 c 1.315137,-2.018274 3.94574,-3.893568 6.354651,-4.518588 1.210967,-0.312497 1.393299,-0.247284 0.325562,0.117306 -1.966194,0.677097 -3.372666,1.575357 -4.92218,3.124874 -0.88645,0.891757 -1.857812,1.733245 -2.445329,2.674772 -0.54207,0.868687 -0.728273,1.840002 -0.88315,2.608109 -0.0185,0.0916 -0.156345,0.768726 -0.395325,1.141016 -0.29802,0.464257 -0.639667,0.791906 -1.308964,1.278995 -0.28185,0.20605 -0.439261,0.34017 -0.640271,0.50539 -3.160841,2.61366 -6.517305,4.6383 -10.931633,6.57531 -0.289917,0.1241 -0.582836,0.24903 -0.877466,0.37362 -5.054282,2.00699 -9.573346,3.22176 -12.984737,4.2075 -3.506298,1.01317 -5.407251,1.71543 -5.474601,2.86856 -0.0493,0.84381 1.017134,1.88537 3.378605,2.82618 1.861204,0.73593 6.100346,2.08501 9.160681,2.41226 1.393834,0.22559 2.39498,0.31966 4.045748,0.69401 1.981963,0.44946 3.458314,0.99153 4.35374,1.56425 5.41226,3.78741 3.121416,10.01691 0.343131,11.36726 -6.727729,3.42968 -13.769365,6.28138 -20.703129,9.32811 -4.275358,2.16351 -6.233212,3.31656 -6.40116,5.65547 -0.06855,0.95473 0.59096,2.19623 2.120801,3.31866 v 5.2e-4 c -2.68e-4,3.3e-4 7.12e-4,6.7e-4 -10e-4,0.001 0.0051,0.003 0.01039,0.006 0.0155,0.009 0.896146,0.65467 2.08882,1.26798 3.608565,1.75958 0.07613,0.0295 0.150843,0.0598 0.227893,0.0889 4.865466,1.8355 10.31995,2.61425 16.196944,2.76934 0.184595,0.006 0.369028,0.0104 0.553455,0.015 5.080856,0.12499 10.222963,-0.0169 14.517977,-0.43408 7.802492,-0.85108 15.322693,-2.8057 18.616434,-6.12521 1.889772,-1.58341 2.83962,-3.43686 2.83962,-5.56297 0,-1.89619 -0.682671,-3.43184 -2.047937,-4.60747 -1.175641,-0.98604 -2.787473,-1.47898 -4.835363,-1.47898 l -7.338571,-0.34158 c -1.175642,0 -2.218318,-0.11351 -3.128491,-0.34106 -0.872249,-0.22755 -1.308447,-0.6259 -1.308447,-1.19476 0,-0.56886 0.417279,-1.28937 1.251603,-2.16163 0.872249,-0.87226 1.592771,-1.34628 2.161625,-1.42213 l 3.071647,0.28473 c 2.085814,0 4.0014,-0.62641 5.745903,-1.87792 2.199586,-1.55487 3.299023,-3.71644 3.299023,-6.48487 0,-1.2515 -0.0946,-2.21849 -0.28422,-2.90112 -0.151697,-0.68264 -0.417095,-1.4599 -0.796334,-2.33216 l 1.773314,-0.633 2.528965,-1.79965 -3.961214,0.21367 c -0.530164,0.0286 -1.042813,-0.0378 -1.535824,-0.11369 -0.493011,-0.0758 -1.023806,-0.22772 -1.592668,-0.45527 -1.25149,-0.45509 -2.275761,-0.77776 -3.072164,-0.96738 -0.758479,-0.22755 -1.573596,-0.34107 -2.445845,-0.34107 v 5.2e-4 c -2.502982,0 -4.683964,0.73945 -6.542236,2.21847 -2.161661,1.74452 -3.24218,4.17193 -3.24218,7.28173 0,3.37519 1.763191,5.84002 5.290117,7.39489 -2.275434,2.00997 -3.754309,3.48935 -4.436939,4.43746 -0.417162,0.56886 -0.625801,1.15641 -0.625801,1.7632 0,0.75849 0.233988,1.58903 0.840775,2.08204 0.854661,0.74906 2.289747,1.18734 2.989998,1.32085 1.307502,0.24928 1.994682,0.21101 4.076237,0.40928 0.834328,0.0758 2.693152,0.11369 5.575371,0.11369 2.427129,0 4.190321,0.17079 5.290116,0.51211 0.97717,0.29315 1.5343,0.89439 1.672249,1.80299 0.0025,0.0126 0.0036,0.0252 0.0067,0.0377 v 5.1e-4 c 0.003,0.0123 0.0053,0.0442 0.0052,0.0475 0.01487,0.12349 0.03757,0.24647 -0.01189,0.56121 -0.746727,2.95274 -6.952636,5.28633 -16.666166,6.59391 -2.773571,0.27071 -3.518344,0.28241 -4.313948,0.30438 -8.674685,0.23954 -15.242603,-0.5096 -19.692855,-1.52911 -3.560219,-0.80712 -7.315106,-2.41736 -8.065141,-3.34036 -1.175326,-1.44636 -0.536565,-2.5633 0.859379,-3.2241 6.241336,-2.77187 12.792619,-5.37951 18.336865,-8.75243 3.555913,-2.23657 8.691647,-4.67731 7.697722,-9.08679 -0.09919,-0.44005 -0.254233,-0.81166 -0.448552,-1.13223 -0.873899,-1.71419 -2.73253,-3.30508 -5.422924,-4.59713 -2.112696,-0.85116 -3.189612,-1.27606 -5.435844,-1.87017 -2.329597,-0.60164 -5.074055,-0.65514 -7.562846,-1.44436 -1.669997,-0.51274 -2.51361,-0.82042 -2.57142,-1.49345 -0.0674,-0.78511 1.093184,-1.5398 3.354318,-2.54403 2.169504,-0.96923 5.07328,-2.09231 8.718331,-3.70468 l 0.114205,-0.0501 c 1.901986,-0.87704 2.834419,-1.18922 3.677294,-1.65881 0.131393,-0.0571 0.235853,-0.10357 0.393775,-0.17157 0.907229,-0.39065 4.300267,-2.5175 5.465816,-2.81533 1.354689,-0.34617 4.728232,-1.15577 7.349939,-3.09697 1.136189,-0.92575 2.122622,-0.85549 2.633431,-0.70228 l 0.882117,0.28474 -0.177767,0.67179 c -0.22817,0.86199 -0.227951,1.2807 0.01292,2.20607 0.2662,1.02678 0.975989,2.01551 1.964738,2.75073 1.014109,0.73523 2.192741,1.19135 3.789949,1.44488 4.626866,0.73522 5.615767,1.16646 6.591846,2.95382 l 0.367936,0.6842 0.164331,-0.74776 c 0.24085,-1.06481 0.203185,-3.23269 -0.06305,-4.22145 -0.849309,-3.11838 -3.334104,-5.99547 -6.110221,-7.07295 -1.153549,-0.431001 -3.460438,-0.545111 -4.360458,-0.190171 -1.318338,0.507051 -1.318557,0.532381 -0.01292,0.861961 1.432429,0.35494 2.731314,1.05773 3.859503,1.90704 0.469019,0.35494 2.919686,3.15752 2.919686,3.18288 0,0.0254 -2.130495,-2.11389 -3.230876,-3.02608 -2.733953,-1.83878 -5.390821,-2.44213 -6.059271,-2.5558 -0.458059,-0.0779 -2.166557,-0.536186 -3.491776,0.47904 -2.48048,1.8274 -4.758091,2.82057 -8.428426,3.35277 1.403337,-1.2346 2.082728,-1.95479 2.717663,-2.48202 1.099497,-0.78437 1.742684,-1.6407 1.888774,-1.823144 0.33982,-0.42435 0.4524,-0.790854 0.49196,-1.950268 0.0238,-0.69741 0.264979,-1.658794 0.811836,-2.505791 0.612,-0.807307 2.083572,-0.910723 4.987293,-0.689363 2.513081,0.19532 3.51578,0.0781 4.869987,-0.586011 1.132837,-0.546887 1.835925,-1.158796 2.513025,-2.187463 0.976587,-1.484417 1.562764,-4.02359 1.289327,-5.664254 -0.0651,-0.48179 -0.169612,-0.91127 -0.221692,-0.95033 -0.0065,-0.0049 -0.01668,-0.0051 -0.03049,-0.001 z m -5.464266,3.685563 c 0.1823,0 0.247112,0.02601 0.168982,0.06511 -0.0911,0.026 -0.246915,0.026 -0.325045,0 -0.0911,-0.0391 -0.0262,-0.06511 0.156063,-0.06511 z m -2.577104,28.113014 c 1.668652,0 3.015084,0.8346 4.03903,2.5032 1.175644,1.89621 1.7632,4.13398 1.7632,6.71277 0,1.70658 -0.379438,3.05249 -1.137915,4.03852 -0.720557,0.94811 -1.725391,1.42213 -3.014803,1.42213 -2.085817,0 -3.640885,-1.02374 -4.664832,-3.07165 -0.834324,-1.6686 -1.251086,-3.83016 -1.251086,-6.48487 0,-1.82034 0.455118,-3.16677 1.365291,-4.03903 0.720554,-0.72056 1.687549,-1.08107 2.901115,-1.08107 z"
         sodipodi:nodetypes="cccccccccccsssccccssccscccsccccccccccsccccsccccsccccsccccccsccscscscccccccscsccscccccccccsscccccccccccccccscscccsscccccsccsccsscscssscs" /></g><path
       id="text1193-0-6"
       style="font-size:106.747px;fill:#000000;fill-opacity:1;stroke-width:3.89876"
       d="M 33.645111,0.55686011 V 13.559132 l 6.680551,1.257486 c 17.703537,2.935687 21.3781,10.485301 21.712142,46.133047 v 42.576295 c 1.091464,-0.29908 2.215747,-0.47471 3.335717,-0.63053 1.050686,-0.1378 2.096254,-0.29768 3.136422,-0.5001 1.363023,-0.3068 2.715283,-0.66118 4.073189,-0.98929 1.742927,-0.44957 3.47744,-0.92751 5.229134,-1.34265 1.7809,-0.430399 3.584066,-0.748277 5.386845,-1.069029 0.647958,-0.107999 1.297528,-0.208272 1.945975,-0.311707 h 0.0018 c 0.731968,-0.385689 1.479188,-0.743573 2.23412,-1.081717 1.841559,-0.821727 3.683714,-1.656498 5.600623,-2.290221 0.817765,-0.273838 1.638265,-0.542103 2.460555,-0.802688 V 60.949665 C 95.776319,25.301848 99.449058,17.752236 117.15249,14.816547 l 6.68052,-1.257451 V 0.55678998 Z M 64.308108,104.20183 c -0.003,0.001 0.01753,0.014 0.02805,0.014 0.05925,0.014 0.119215,0.0245 0.179169,0.0315 0.0071,9.1e-4 0.01402,9.5e-4 0.01753,0.002 -0.01753,-0.007 -0.03927,-0.0105 -0.05785,-0.0175 -0.05645,-0.0105 -0.113253,-0.0246 -0.170405,-0.0316 z m 31.134065,53.56548 c -0.97376,0.58951 -2.019713,1.05208 -3.078429,1.48217 -1.749029,0.67085 -3.461347,1.44132 -5.230992,2.05832 -0.472504,0.16478 -0.950548,0.3131 -1.425962,0.46927 -2.757851,0.8579 -5.555111,1.57796 -8.313067,2.4352 -1.676939,0.52419 -3.311699,1.1758 -4.866762,1.99314 -1.337042,0.76685 -2.622438,1.62242 -3.852154,2.55115 -1.787913,1.37347 -3.506928,2.83482 -5.207431,4.31418 -0.33099,0.29662 -0.664436,0.59136 -0.99108,0.89326 v 0.001 c -0.143757,0.16234 -0.29137,0.32081 -0.438492,0.48014 v 49.81126 c 1.366775,0.007 2.733691,0.021 4.100328,0.0351 1.31916,0.0142 2.634639,0.10409 3.951802,0.1704 1.056542,0.0245 2.111015,0.0936 3.161772,0.20477 1.247388,0.11542 2.487553,0.28155 3.728909,0.44754 2.171709,0.29137 4.335178,0.64136 6.512006,0.89511 2.315675,0.21107 4.629913,0.42297 6.941452,0.6777 1.664002,0.16234 3.313698,0.43568 4.966445,0.68302 0.02103,0.003 0.04488,0.007 0.06697,0.01 -0.0071,-0.55031 -0.01753,-1.04647 -0.02454,-1.61077 z m -35.30508,95.4261 c -2.525314,12.79228 -8.094871,16.76508 -19.811431,18.708 l -6.680551,1.25746 v 13.00044 h 90.187899 v -13.00044 l -6.68052,-1.25746 c -11.2416,-1.86413 -16.82049,-5.60111 -19.48528,-17.19866 -0.499536,3.8e-4 -0.998793,0.001 -1.498436,0.001 -1.347141,10e-4 -2.695263,0.003 -4.042404,0.01 -2.004671,0.01 -4.00913,0.028 -6.01373,0.0508 -2.548421,0.028 -5.098736,0.0824 -7.646245,-0.0142 -4.009306,-0.17602 -8.014404,-0.43187 -12.007546,-0.83891 -2.107789,-0.21984 -4.220767,-0.42974 -6.321756,-0.72113 z" /></g></svg>
